<svg xmlns="http://www.w3.org/2000/svg" width="23.045" height="26" viewBox="0 0 23.045 26">
  <g id="noun_Waiting_585190" transform="translate(-11 -6)">
    <g id="Group_37144" data-name="Group 37144" transform="translate(11 6)">
      <path id="Path_173779" data-name="Path 173779" d="M11.591,6a.591.591,0,1,0,0,1.182H33.455a.591.591,0,1,0,0-1.182Zm3.176,2.364c.552,2.319,2.074,4.6,3.629,7.386a6.44,6.44,0,0,1,0,6.5c-1.8,2.645-3.173,5.022-3.656,7.386H30.306c-.483-2.364-1.86-4.742-3.656-7.386a6.44,6.44,0,0,1,0-6.5c1.555-2.787,3.077-5.067,3.629-7.386ZM11.591,30.818a.591.591,0,1,0,0,1.182H33.455a.591.591,0,1,0,0-1.182Z" transform="translate(-11 -6)" fill="#61acd6" fill-rule="evenodd"/>
    </g>
  </g>
</svg>
