<svg xmlns="http://www.w3.org/2000/svg" width="26" height="26" viewBox="0 0 26 26">
  <g id="noun_approval_1872977" transform="translate(-5.174 -266.174)">
    <path id="Path_173780" data-name="Path 173780" d="M28.956,15.4l-1.171-1.9a1.473,1.473,0,0,1-.217-.812l.061-2.235a1.473,1.473,0,0,0-.771-1.336L24.891,8.051a1.472,1.472,0,0,1-.594-.594L23.233,5.49a1.473,1.473,0,0,0-1.3-.772H21.9l-2.235.061h-.041a1.472,1.472,0,0,1-.771-.218L16.945,3.392a1.474,1.474,0,0,0-1.542,0L13.5,4.563a1.472,1.472,0,0,1-.771.218h-.041l-2.235-.061H10.41a1.473,1.473,0,0,0-1.3.772L8.051,7.456a1.472,1.472,0,0,1-.594.594L5.49,9.115a1.473,1.473,0,0,0-.771,1.336l.061,2.235a1.473,1.473,0,0,1-.217.812L3.392,15.4a1.473,1.473,0,0,0,0,1.543l1.171,1.9a1.473,1.473,0,0,1,.217.812L4.719,21.9a1.473,1.473,0,0,0,.771,1.336L7.456,24.3a1.472,1.472,0,0,1,.594.594l1.064,1.966a1.473,1.473,0,0,0,1.3.772h.041l2.235-.061h.041a1.472,1.472,0,0,1,.771.218l1.9,1.171a1.474,1.474,0,0,0,1.542,0l1.905-1.171a1.472,1.472,0,0,1,.771-.218h.041l2.235.061h.041a1.473,1.473,0,0,0,1.3-.772L24.3,24.891a1.472,1.472,0,0,1,.594-.594l1.966-1.064a1.473,1.473,0,0,0,.771-1.336l-.061-2.235a1.473,1.473,0,0,1,.217-.812l1.171-1.9A1.473,1.473,0,0,0,28.956,15.4Zm-7.213-1.254-5.892,7.364a1.476,1.476,0,0,1-1.069.549l-.082,0a1.468,1.468,0,0,1-1.041-.432l-2.946-2.946A1.473,1.473,0,1,1,12.8,16.605l1.782,1.782,4.863-6.08a1.474,1.474,0,1,1,2.3,1.841Z" transform="translate(2 263)" fill="#fa0"/>
  </g>
</svg>
