<svg xmlns="http://www.w3.org/2000/svg" width="17.206" height="17.211" viewBox="0 0 17.206 17.211">
  <g id="Icon_ionic-ios-timer" data-name="Icon ionic-ios-timer" transform="translate(-3.938 -3.938)">
    <path id="Path_172916" data-name="Path 172916" d="M12.543,21.148a8.605,8.605,0,0,1-5.972-14.8.691.691,0,1,1,.959.994,7.222,7.222,0,1,0,5.7-1.988V8.047a.693.693,0,1,1-1.385,0V4.63a.692.692,0,0,1,.693-.693,8.605,8.605,0,0,1,0,17.211Z" transform="translate(0 0)" fill="#61acd6"/>
    <path id="Path_172917" data-name="Path 172917" d="M11.935,11.332l4.281,3.076a1.3,1.3,0,0,1-1.506,2.108,1.251,1.251,0,0,1-.3-.3l-3.076-4.281a.432.432,0,0,1,.6-.6Z" transform="translate(-2.839 -2.838)" fill="#61acd6"/>
  </g>
</svg>
