<svg xmlns="http://www.w3.org/2000/svg" width="23.5" height="25.078" viewBox="0 0 23.5 25.078">
  <g id="noun_wishlist_3551002" transform="translate(-20 -17.941)">
    <path id="Path_172918" data-name="Path 172918" d="M24.3,26.347h4.3V24H24.3A4.3,4.3,0,0,0,20,28.3V44.409a2.281,2.281,0,0,0,3.912,1.612L29,40.935l5.086,5.086A2.281,2.281,0,0,0,38,44.409V35.736H35.648v8.513L29,37.6l-6.651,6.651V28.3A1.956,1.956,0,0,1,24.3,26.347Z" transform="translate(0 -3.689)" fill="#fff"/>
    <path id="Path_172919" data-name="Path 172919" d="M60.541,21.9a3.939,3.939,0,0,0-6.259-3.184,3.939,3.939,0,0,0-5.113,5.97l5.105,5.086,5.086-5.086A3.912,3.912,0,0,0,60.541,21.9ZM57.728,23.05,54.282,26.5,50.835,23.05a1.6,1.6,0,0,1,2.246-2.273l1.193,1.174,1.174-1.174a1.61,1.61,0,0,1,2.281,2.273Z" transform="translate(-17.041)" fill="#fff"/>
  </g>
</svg>
